<svg xmlns="http://www.w3.org/2000/svg" viewBox="0 0 800 450" role="img" aria-labelledby="title desc">
  <title id="title">AI automation workflow project</title>
  <desc id="desc">AI automation flow connecting Claude, OpenAI, Make.com, and n8n.</desc>
  <rect width="800" height="450" fill="#070b12"/>
  <g fill="#111b26" stroke="#2a4050" stroke-width="2">
    <rect x="58" y="164" width="138" height="84" rx="12"/><rect x="238" y="78" width="146" height="84" rx="12"/><rect x="238" y="286" width="146" height="84" rx="12"/><rect x="432" y="164" width="146" height="84" rx="12"/><rect x="626" y="164" width="116" height="84" rx="12"/>
  </g>
  <g fill="none" stroke="#35d0c2" stroke-width="6" stroke-linecap="round" stroke-linejoin="round">
    <path d="M196 206c36 0 28-86 42-86"/><path d="M196 206c36 0 28 122 42 122"/><path d="M384 120c36 0 20 86 48 86"/><path d="M384 328c36 0 20-122 48-122"/><path d="M578 206h48"/>
  </g>
  <text x="83" y="216" fill="#f3f6f8" font-family="Inter, Arial" font-size="22" font-weight="700">Lead</text>
  <text x="270" y="130" fill="#f5b84b" font-family="Inter, Arial" font-size="22" font-weight="700">Claude</text>
  <text x="270" y="338" fill="#8fb4ff" font-family="Inter, Arial" font-size="22" font-weight="700">OpenAI</text>
  <text x="468" y="216" fill="#35d0c2" font-family="Inter, Arial" font-size="22" font-weight="700">Make</text>
  <text x="662" y="216" fill="#ef6f8f" font-family="Inter, Arial" font-size="22" font-weight="700">n8n</text>
  <circle cx="400" cy="224" r="134" fill="none" stroke="#1c2a35" stroke-width="2" stroke-dasharray="10 14"/>
</svg>
